<?xml version="1.0" encoding="UTF-8" standalone="no"?>
<!-- Svg Vector Icons : http://www.onlinewebfonts.com/icon -->

<svg
   xmlns:dc="http://purl.org/dc/elements/1.1/"
   xmlns:cc="http://creativecommons.org/ns#"
   xmlns:rdf="http://www.w3.org/1999/02/22-rdf-syntax-ns#"
   xmlns:svg="http://www.w3.org/2000/svg"
   xmlns="http://www.w3.org/2000/svg"
   xmlns:sodipodi="http://sodipodi.sourceforge.net/DTD/sodipodi-0.dtd"
   xmlns:inkscape="http://www.inkscape.org/namespaces/inkscape"
   version="1.1"
   x="0px"
   y="0px"
   viewBox="0 0 1000 1000"
   enable-background="new 0 0 1000 1000"
   xml:space="preserve"
   id="svg2"
   inkscape:version="0.91 r13725"
   sodipodi:docname="disconnect.svg"
   inkscape:export-filename="/Users/ricardo/Downloads/disconnect.png"
   inkscape:export-xdpi="2.8800001"
   inkscape:export-ydpi="2.8800001"><defs
     id="defs20" /><sodipodi:namedview
     pagecolor="#ffffff"
     bordercolor="#666666"
     borderopacity="1"
     objecttolerance="10"
     gridtolerance="10"
     guidetolerance="10"
     inkscape:pageopacity="0"
     inkscape:pageshadow="2"
     inkscape:window-width="1280"
     inkscape:window-height="731"
     id="namedview18"
     showgrid="false"
     inkscape:zoom="0.236"
     inkscape:cx="19.309699"
     inkscape:cy="544.75483"
     inkscape:window-x="0"
     inkscape:window-y="0"
     inkscape:window-maximized="1"
     inkscape:current-layer="g6" /><metadata
     id="metadata4"> Svg Vector Icons : http://www.onlinewebfonts.com/icon <rdf:RDF><cc:Work
     rdf:about=""><dc:format>image/svg+xml</dc:format><dc:type
       rdf:resource="http://purl.org/dc/dcmitype/StillImage" /><dc:title /></cc:Work></rdf:RDF></metadata><g
     id="g6"><path
       d="m 282.17357,485.59604 -75.40852,77.1754 c -66.68848,68.23727 -34.97925,202.50131 6.63912,240.84874 41.51928,38.1552 181.53535,61.89408 248.32292,-6.4393 L 537.13561,720.1016 282.17357,485.59604 Z"
       id="path8"
       inkscape:connector-curvature="0" /><path
       d="m 482.73446,599.00447 c -12.98097,13.26302 -12.48551,34.31085 1.28819,46.99722 l 0,0 c 13.6746,12.68636 35.37561,12.0136 48.45567,-1.24942 l 90.96586,-93.03335 c 13.08005,-13.26302 12.48551,-34.31085 -1.28819,-46.99722 l 0,0 c -13.7737,-12.59026 -35.37561,-12.01361 -48.45567,1.24942 l -90.96586,93.03335 z"
       id="path10"
       inkscape:connector-curvature="0" /><path
       d="m 352.8257,479.63729 c -13.08006,13.35913 -12.48551,34.31086 1.28819,46.99722 l 0,0 c 13.77369,12.68637 35.37561,12.01361 48.45567,-1.24941 l 90.96586,-93.03335 c 13.08005,-13.26302 12.48551,-34.31086 -1.28819,-46.99722 l 0,0 c -13.7737,-12.59026 -35.37561,-12.01361 -48.45567,1.24941 l -90.96586,93.03335 z"
       id="path12"
       inkscape:connector-curvature="0" /><path
       d="m 754.9384,187.56255 c 7.72912,-5.67042 16.84553,-12.39804 27.25012,-23.06612 L 895.64811,48.396956 c 15.55735,-15.954067 41.51928,-16.626828 57.86936,-1.537741 16.44916,15.089087 17.1428,40.269601 1.58546,56.127555 l -113.4596,116.09948 c -11.59369,11.91749 -16.74644,20.47118 -22.49374,28.06378 25.66466,56.70421 33.59197,149.83367 -18.43099,203.07796 L 725.31008,527.30727 470.34804,292.89783 545.75656,215.72244 C 598.07679,162.38203 695.2854,165.45752 754.9384,187.56255 Z"
       id="path14"
       inkscape:connector-curvature="0" /><path
       d="m 189.22588,767.09882 c -5.35093,7.78482 -11.89096,17.01126 -22.29555,27.67934 L 53.371644,910.87763 c -15.55734,15.95407 -14.8637,41.03847 1.58546,56.12756 16.44917,15.08909 42.31201,14.41633 57.869346,-1.53774 l 113.4596,-116.09947 c 11.59368,-11.9175 20.11554,-17.3957 27.74557,-23.25834 59.75209,21.81671 156.06888,24.50776 208.09184,-28.73654 l 75.30942,-77.07928 -254.96204,-234.40945 -75.40852,77.07928 c -52.22114,53.53262 -43.89746,147.52706 -17.83644,204.13517 z"
       id="path16"
       inkscape:connector-curvature="0" /></g></svg>