<?xml version="1.0" encoding="utf-8"?>
<!-- Generated by IcoMoon.io -->
<!DOCTYPE svg PUBLIC "-//W3C//DTD SVG 1.1//EN" "http://www.w3.org/Graphics/SVG/1.1/DTD/svg11.dtd">
<svg version="1.1" xmlns="http://www.w3.org/2000/svg" xmlns:xlink="http://www.w3.org/1999/xlink" width="16" height="16" viewBox="0 0 16 16">
<path fill="#000000" d="M12.688 11.938q-0.688-1.781-0.688-3.938t0.688-3.938q1.422 0.25 2.367 1.359t0.945 2.578-0.945 2.578-2.367 1.359zM13.5 7q-0.203 0-0.352 0.148t-0.148 0.352 0.148 0.352 0.352 0.148 0.352-0.148 0.148-0.352-0.148-0.352-0.352-0.148zM4.469 9.094q-0.406 0.125-0.75 0.477t-0.602 0.75-0.539 0.789-0.68 0.641-0.898 0.25q-0.484 0-0.742-0.297t-0.258-0.703q0-1.063 0.672-1.789t1.797-1.023q0.031-0.109 0.031-0.188t-0.031-0.188q-1.125-0.297-1.797-1.023t-0.672-1.789q0-0.391 0.281-0.695t0.719-0.305q0.5 0 0.898 0.25t0.68 0.641 0.539 0.789 0.602 0.75 0.75 0.477q0.625-0.734 2-1.406t2.773-1.047 2.43-0.438q-0.672 1.859-0.672 3.984t0.672 3.984q-1.031-0.063-2.43-0.438t-2.773-1.047-2-1.406zM8.5 2q0.625 0 1.063 0.438t0.438 1.063q-1 0-2.57 0.609t-2.93 1.391q0.406-0.75 1.266-1.594t1.641-1.375 1.094-0.531zM6.281 11.5q1.25 0.609 2.719 1.016-0.281 0.672-0.891 1.078t-1.344 0.406q-0.391 0-0.57-0.117t-0.188-0.367 0.047-0.523l0.141-0.703t0.086-0.773v-0.016z"></path>
</svg>
